<svg width="32" height="32" viewBox="0 0 32 32" fill="none" xmlns="http://www.w3.org/2000/svg">
<path d="M31.0591 16C31.0591 24.3167 24.317 31.0588 16.0002 31.0588C7.68347 31.0588 0.941406 24.3167 0.941406 16C0.941406 7.68323 7.68347 0.941162 16.0002 0.941162C24.317 0.941162 31.0591 7.68323 31.0591 16Z" fill="black"/>
<path fill-rule="evenodd" clip-rule="evenodd" d="M32 16C32 24.8366 24.8366 32 16 32C7.16344 32 0 24.8366 0 16C0 7.16344 7.16344 0 16 0C24.8366 0 32 7.16344 32 16ZM16 31.0588C24.3168 31.0588 31.0588 24.3168 31.0588 16C31.0588 7.68324 24.3168 0.941176 16 0.941176C7.68324 0.941176 0.941176 7.68324 0.941176 16C0.941176 24.3168 7.68324 31.0588 16 31.0588Z" fill="white"/>
<path fill-rule="evenodd" clip-rule="evenodd" d="M8.01343 14.539L15.2013 7.35113C15.6424 6.91004 16.3576 6.91004 16.7986 7.35113L23.9866 14.539C24.4276 14.9801 24.4276 15.6953 23.9866 16.1363C23.5455 16.5774 22.8303 16.5774 22.3892 16.1363L17.1295 10.8766L17.1295 25.2319C17.1295 25.8557 16.6238 26.3614 16 26.3614C15.3762 26.3614 14.8705 25.8557 14.8705 25.2319L14.8705 10.8766L9.61074 16.1363C9.16966 16.5774 8.45452 16.5774 8.01343 16.1363C7.57235 15.6953 7.57235 14.9801 8.01343 14.539Z" fill="white"/>
</svg>
