<svg width="252" height="81" viewBox="0 0 252 81" fill="none" xmlns="http://www.w3.org/2000/svg">
<circle cx="40.5012" cy="40.5012" r="40.5012" fill="white"/>
<path fill-rule="evenodd" clip-rule="evenodd" d="M40.5012 1.64323C61.9476 1.64323 79.3592 19.0549 79.3592 40.5012C79.3592 61.9476 61.9476 79.3592 40.5012 79.3592C19.0549 79.3592 1.64324 61.9476 1.64324 40.5012C1.64324 19.0549 19.0549 1.64323 40.5012 1.64323ZM76.0231 47.1985C76.4451 45.0294 76.666 42.7905 76.666 40.5012C76.666 20.8943 60.4612 4.97599 40.5012 4.97599C20.5413 4.97599 4.33648 20.8943 4.33648 40.5012C4.33648 44.5423 5.02482 48.4267 6.29256 52.0472C7.57139 50.4668 9.30687 50.3324 9.30687 50.3324C10.8812 50.0817 11.5806 49.0083 11.5806 49.0083C12.3218 48.045 12.2967 46.9735 12.2967 46.9735C12.6155 45.1127 13.3671 44.8313 13.3671 44.8313C13.0213 45.4453 13.2123 45.9397 13.2123 45.9397C13.7537 47.8353 12.4819 49.9012 12.4819 49.9012C11.7007 51.3083 10.2536 52.0775 10.2536 52.0775C9.73234 52.2499 9.27802 52.9554 9.27802 52.9554C8.56951 54.569 10.0723 55.4367 10.0723 55.4367C12.3022 57.3832 14.3417 51.2055 14.3417 51.2055C16.1956 46.5073 19.139 44.3952 19.139 44.3952C19.9827 43.6161 20.203 42.7458 20.203 42.7458C21.0927 44.1193 18.8857 47.1355 18.8857 47.1355C17.7849 48.3723 17.2575 50.524 17.2575 50.524C16.9017 52.2472 14.994 54.7067 14.994 54.7067C13.5307 56.3912 14.4959 57.5906 14.4959 57.5906C15.4229 58.0949 16.2634 57.78 16.2634 57.78C18.3499 56.8713 18.7867 52.2117 18.7867 52.2117C19.2417 49.5433 20.3638 48.1109 20.3638 48.1109C21.2804 47.0716 21.5723 47.3814 21.5723 47.3814C19.344 49.6849 20.3374 52.9986 20.3374 52.9986C20.8474 56.3002 19.03 59.2948 19.03 59.2948C17.6128 61.6204 16.2152 62.2321 16.2152 62.2321C14.6747 62.8995 13.1353 62.6967 11.963 62.3142C14.5635 65.5914 17.7357 68.4097 21.3319 70.624C21.0589 70.1724 20.9591 69.8802 20.9591 69.8802C20.3257 65.8843 23.2204 64.0624 23.2204 64.0624C24.7477 62.9199 24.8902 61.3936 24.8902 61.3936C25.1382 59.9606 24.5145 58.8401 24.5145 58.8401C23.8153 56.692 24.4542 55.9752 24.4542 55.9752C24.4302 56.818 24.9079 57.2351 24.9079 57.2351C26.5374 58.9406 26.3421 61.8368 26.3421 61.8368C26.299 63.7619 25.1954 65.3828 25.1954 65.3828C24.7394 65.8559 24.6515 66.8559 24.6515 66.8559C24.8004 68.9593 26.8751 69.0407 26.8751 69.0407C30.3209 69.8591 29.038 62.1815 29.038 62.1815C28.3831 56.1738 30.3228 52.2973 30.3228 52.2973C30.782 51.0021 30.5302 49.9579 30.5302 49.9579C32.2376 50.9165 31.5815 55.34 31.5815 55.34C31.1052 57.263 31.7457 59.8352 31.7457 59.8352C32.3291 61.8579 31.6797 65.5251 31.6797 65.5251C31.0689 68.1243 32.7593 68.8563 32.7593 68.8563C34.0219 68.8737 34.7363 68.072 34.7363 68.072C36.4392 65.9472 34.3053 60.7699 34.3053 60.7699C33.3002 57.691 33.69 55.5491 33.69 55.5491C34.0815 53.9379 34.5632 54.1032 34.5632 54.1032C33.4874 57.784 36.3858 60.739 36.3858 60.739C38.7656 63.9509 38.5097 68.1344 38.5097 68.1344C38.3051 71.3863 37.1661 72.8129 37.1661 72.8129C35.9585 74.3139 34.306 74.9668 32.8898 75.2368C35.3441 75.7541 37.8905 76.0265 40.5012 76.0265C45.2375 76.0265 49.7622 75.1301 53.9093 73.501C52.3378 73.4352 49.8338 72.9754 48.1722 70.9102C48.1722 70.9102 47.0333 69.4836 46.8285 66.2316C46.8285 66.2316 46.5727 62.0481 48.9526 58.8363C48.9526 58.8363 51.851 55.8812 50.7752 52.2005C50.7752 52.2005 51.2568 52.0351 51.6483 53.6464C51.6483 53.6464 52.0381 55.7883 51.0331 58.8672C51.0331 58.8672 48.8991 64.0445 50.6021 66.1693C50.6021 66.1693 51.3164 66.971 52.579 66.9536C52.579 66.9536 54.2694 66.2215 53.6587 63.6224C53.6587 63.6224 53.0092 59.9552 53.5927 57.9324C53.5927 57.9324 54.2332 55.3602 53.7568 53.4372C53.7568 53.4372 53.1007 49.0138 54.8081 48.0552C54.8081 48.0552 54.5563 49.0994 55.0156 50.3946C55.0156 50.3946 56.9552 54.271 56.3004 60.2788C56.3004 60.2788 55.0174 67.9564 58.4632 67.138C58.4632 67.138 60.5379 67.0566 60.6868 64.9532C60.6868 64.9532 60.5989 63.9532 60.143 63.4801C60.143 63.4801 59.0394 61.8592 58.9962 59.9341C58.9962 59.9341 58.8008 57.0379 60.4305 55.3324C60.4305 55.3324 60.9081 54.9153 60.8841 54.0725C60.8841 54.0725 61.5231 54.7893 60.8239 56.9373C60.8239 56.9373 60.2002 58.0579 60.4481 59.4909C60.4481 59.4909 60.5907 61.0171 62.118 62.1597C62.118 62.1597 64.5868 63.7136 64.4655 67.0987C67.1867 64.7307 69.5424 61.9663 71.4386 58.8982C70.3495 59.1707 69.0284 59.2388 67.7065 58.6661C67.7065 58.6661 66.3087 58.0543 64.8916 55.7287C64.8916 55.7287 63.0741 52.7342 63.5841 49.4325C63.5841 49.4325 64.5776 46.1188 62.3492 43.8153C62.3492 43.8153 62.6412 43.5055 63.5578 44.5448C63.5578 44.5448 64.6799 45.9773 65.1349 48.6456C65.1349 48.6456 65.5718 53.3052 67.6583 54.2139C67.6583 54.2139 68.4986 54.5289 69.4256 54.0245C69.4256 54.0245 70.3909 52.8252 68.9275 51.1406C68.9275 51.1406 67.0198 48.6811 66.6641 46.9579C66.6641 46.9579 66.1366 44.8063 65.0358 43.5694C65.0358 43.5694 62.8289 40.5533 63.7186 39.1798C63.7186 39.1798 63.9389 40.05 64.7825 40.8292C64.7825 40.8292 67.7259 42.9413 69.5798 47.6394C69.5798 47.6394 71.6193 53.8171 73.8494 51.8706C73.8494 51.8706 75.352 51.0029 74.6435 49.3893C74.6435 49.3893 74.1892 48.6839 73.6679 48.5114C73.6679 48.5114 72.2208 47.7422 71.4397 46.3352C71.4397 46.3352 70.1679 44.2692 70.7093 42.3736C70.7093 42.3736 70.9002 41.8792 70.5545 41.2652C70.5545 41.2652 71.306 41.5466 71.6249 43.4074C71.6249 43.4074 71.5998 44.479 72.341 45.4424C72.341 45.4424 73.0404 46.5156 74.6147 46.7663C74.6147 46.7663 75.2435 46.815 76.0231 47.1985ZM46.0809 24.1829C45.2226 21.3163 44.5505 19.4002 44.5505 19.4002C44.3826 18.9874 44.6217 18.8319 44.6217 18.8319C47.5046 16.5154 57.5131 17.9278 57.5131 17.9278C57.7254 17.943 57.6176 18.1256 57.6176 18.1256C56.3324 21.5624 54.9774 24.367 53.7179 26.6025C52.3377 25.2001 50.7454 23.9887 49.0765 23.4621C49.0161 23.4412 48.0943 23.141 46.9203 23.6707C46.6545 23.7905 46.3713 23.9557 46.0809 24.1829ZM28.4109 39.2432C25.7852 38.8724 22.5852 38.2038 18.873 37.0358C18.873 37.0358 18.6628 37.0084 18.7814 36.8318C18.7814 36.8318 23.8254 28.0726 27.4253 27.2251C27.4253 27.2251 27.695 27.1322 27.9171 27.5185C27.9171 27.5185 29.2761 29.6351 31.3565 32.5211C30.9545 32.6141 30.6172 32.7478 30.3356 32.898C29.1929 33.5078 28.8706 34.428 28.8527 34.4814C28.3367 35.8911 28.2544 37.5647 28.4109 39.2432ZM43.2495 41.4725C43.2495 41.4725 46.9406 57.442 44.9342 72.9528C44.9342 72.9528 44.8082 74.6827 40.7686 74.6114C40.7686 74.6114 38.1768 74.5135 37.6079 74.0715C37.6079 74.0715 37.5101 73.931 37.6883 73.8042C37.6883 73.8042 38.0644 73.4266 39.8095 72.9103C39.8095 72.9103 40.898 72.5933 41.9214 71.3708C41.9214 71.3708 44.4651 68.6198 44.3454 58.1283C44.3454 58.1283 44.175 50.1154 41.6602 40.7179L43.2495 41.4725ZM38.7703 29.0604L39.3609 28.7522C44.6005 26.0184 46.036 28.9173 46.036 28.9173C48.4066 33.4608 45.8363 41.8824 45.8363 41.8824C45.8363 41.8824 37.4581 39.1735 35.0874 34.6301C35.0874 34.6301 33.5307 31.7944 38.7703 29.0604ZM40.4157 40.0903C37.9454 44.3286 31.2438 47.4969 31.2438 47.4969C31.2438 47.4969 27.6122 39.4755 29.3792 34.665C29.3792 34.665 30.2166 32.2269 34.3427 33.1532C34.2074 34.1772 34.5732 34.8527 34.5974 34.8961C35.5896 36.7922 37.571 38.3968 39.6075 39.6232C39.8769 39.7855 40.1471 39.9412 40.4157 40.0903ZM32.1552 32.4027C30.6204 30.5175 27.2507 26.034 24.2815 19.7035C24.2815 19.7035 24.2155 19.5401 24.3619 19.5032C24.5082 19.4665 30.5439 20.5329 30.5439 20.5329C30.5439 20.5329 30.7118 20.5614 30.6972 20.7164C30.6972 20.7164 31.0805 27.2711 32.6619 32.387C32.485 32.3855 32.3162 32.391 32.1552 32.4027ZM44.5865 27.1962C46.3792 23.1387 48.9036 23.9922 48.9036 23.9922C53.7921 25.5302 57.9269 33.3043 57.9269 33.3043C57.9269 33.3043 52.2095 36.2253 47.4951 36.1211C47.5145 35.9096 47.5317 35.6961 47.5461 35.4811C47.705 33.1083 47.5221 30.5643 46.533 28.6645C46.5049 28.6071 46.0651 27.7431 44.8603 27.288C44.7736 27.2552 44.6823 27.2245 44.5865 27.1962ZM44.9448 25.407C41.8779 21.2749 37.4776 17.4071 37.4776 17.4071C37.3465 17.3231 37.4273 17.1732 37.4273 17.1732C37.4273 17.1732 40.2999 11.759 40.4189 11.6662C40.5379 11.5734 40.6262 11.726 40.6262 11.726C43.3815 17.156 44.8457 21.9638 45.5359 24.6802C45.3382 24.8882 45.1401 25.1288 44.9448 25.407ZM34.4432 32.605C33.9762 32.5015 33.5478 32.4385 33.1549 32.4083C30.5987 22.8879 31.3465 13.4685 31.3465 13.4685L31.3643 13.4598C31.3643 13.4598 38.7938 18.3641 44.6555 25.8512C44.4428 26.2025 44.2357 26.6033 44.0379 27.0604C42.9197 26.8908 41.3208 27.0842 39.0962 28.245L38.5055 28.5531C35.7622 29.9845 34.7698 31.477 34.4432 32.605Z" fill="#A22931"/>
<path d="M93.7048 37.2611C93.5455 37.2611 93.434 37.2372 93.3703 37.1894C93.3066 37.1257 93.2747 37.0142 93.2747 36.8549V36.0902C93.2747 35.915 93.2906 35.7796 93.3225 35.684C93.3703 35.5884 93.4738 35.4371 93.6331 35.23L102.164 22.4458C102.275 22.2546 102.22 22.159 101.997 22.159H94.1827C94.0394 22.159 93.9438 22.1351 93.896 22.0873C93.8482 22.0236 93.8243 21.9201 93.8243 21.7767V19.865C93.8243 19.642 93.9199 19.5305 94.1111 19.5305H106.895C107.102 19.5305 107.206 19.642 107.206 19.865V20.7253C107.206 20.8527 107.182 20.9642 107.134 21.0598C107.102 21.1395 107.031 21.251 106.919 21.3944L98.1972 34.3458C98.1335 34.4414 98.1255 34.5131 98.1733 34.5609C98.2211 34.5928 98.2928 34.6087 98.3884 34.6087H106.776C107.015 34.6087 107.134 34.7122 107.134 34.9193V36.9027C107.134 36.9983 107.102 37.0859 107.039 37.1655C106.975 37.2292 106.871 37.2611 106.728 37.2611H93.7048Z" fill="white"/>
<path d="M111.48 31.9085C111.48 32.5616 111.632 33.151 111.934 33.6768C112.237 34.1865 112.651 34.5928 113.177 34.8954C113.719 35.1822 114.308 35.3256 114.945 35.3256C115.598 35.3256 116.188 35.1901 116.714 34.9193C117.255 34.6485 117.765 34.2104 118.243 33.6051C118.307 33.5254 118.362 33.4856 118.41 33.4856C118.458 33.4697 118.538 33.4936 118.649 33.5573L120.107 34.2025C120.314 34.298 120.338 34.4414 120.178 34.6326C119.701 35.3335 119.183 35.8991 118.625 36.3292C118.084 36.7434 117.478 37.046 116.809 37.2372C116.156 37.4124 115.415 37.5001 114.587 37.5001C113.376 37.5001 112.293 37.2292 111.337 36.6876C110.381 36.146 109.625 35.3972 109.067 34.4414C108.525 33.4697 108.255 32.3545 108.255 31.096C108.255 29.7101 108.533 28.5153 109.091 27.5117C109.664 26.508 110.429 25.7354 111.385 25.1938C112.341 24.6362 113.392 24.3574 114.539 24.3574C115.75 24.3574 116.801 24.6203 117.693 25.146C118.601 25.6717 119.31 26.4284 119.82 27.4161C120.33 28.3878 120.585 29.5747 120.585 30.9765C120.585 31.1358 120.569 31.2633 120.537 31.3589C120.521 31.4544 120.409 31.5102 120.202 31.5261H111.743C111.648 31.5261 111.576 31.558 111.528 31.6217C111.496 31.6854 111.48 31.781 111.48 31.9085ZM117.144 29.7579C117.303 29.7579 117.407 29.7419 117.454 29.7101C117.518 29.6623 117.55 29.5667 117.55 29.4233C117.55 28.9295 117.438 28.4436 117.215 27.9657C116.992 27.4878 116.666 27.0975 116.236 26.7948C115.806 26.4762 115.28 26.3169 114.659 26.3169C114.021 26.3169 113.464 26.4762 112.986 26.7948C112.508 27.0975 112.142 27.5117 111.887 28.0374C111.648 28.5471 111.528 29.1206 111.528 29.7579H117.144Z" fill="white"/>
<path d="M123.285 37.2611C122.998 37.2611 122.854 37.1177 122.854 36.831V25.0026C122.854 24.7318 122.966 24.5964 123.189 24.5964H125.579C125.786 24.5964 125.889 24.7159 125.889 24.9548V26.1974C125.889 26.293 125.913 26.3567 125.961 26.3886C126.009 26.4045 126.072 26.3726 126.152 26.293C126.614 25.8947 127.06 25.5522 127.49 25.2655C127.92 24.9787 128.366 24.7557 128.828 24.5964C129.29 24.4371 129.792 24.3574 130.334 24.3574C131.513 24.3574 132.437 24.6999 133.106 25.3849C133.791 26.054 134.133 26.9461 134.133 28.0613V36.7593C134.133 37.0938 133.966 37.2611 133.631 37.2611H131.433C131.29 37.2611 131.186 37.2292 131.122 37.1655C131.059 37.1018 131.027 36.9903 131.027 36.831V28.6109C131.027 27.9896 130.86 27.5117 130.525 27.1771C130.19 26.8266 129.689 26.6514 129.02 26.6514C128.637 26.6514 128.279 26.7151 127.944 26.8426C127.626 26.9541 127.307 27.1293 126.988 27.3683C126.67 27.6072 126.327 27.9099 125.961 28.2763V36.7832C125.961 37.1018 125.778 37.2611 125.411 37.2611H123.285Z" fill="white"/>
<path d="M149.589 19.2915C150.465 19.2915 151.293 19.4269 152.074 19.6978C152.854 19.9526 153.555 20.319 154.177 20.797C154.798 21.2589 155.308 21.8006 155.706 22.4219C156.104 23.0432 156.367 23.7122 156.494 24.4291C156.542 24.6521 156.542 24.7955 156.494 24.8592C156.463 24.923 156.383 24.9628 156.255 24.9787L153.531 25.1699C153.404 25.1699 153.324 25.146 153.292 25.0982C153.261 25.0345 153.229 24.9468 153.197 24.8353C153.006 23.9432 152.615 23.2184 152.026 22.6608C151.436 22.0873 150.656 21.8006 149.684 21.8006C148.33 21.8006 147.279 22.3263 146.53 23.3777C145.781 24.4291 145.407 26.0859 145.407 28.348C145.407 30.5783 145.765 32.2191 146.482 33.2705C147.215 34.3219 148.306 34.8476 149.756 34.8476C150.743 34.8476 151.588 34.6087 152.289 34.1308C152.99 33.6369 153.563 32.8165 154.009 31.6695C154.057 31.5421 154.2 31.5022 154.439 31.55L156.47 31.9802C156.534 31.9961 156.59 32.0359 156.638 32.0996C156.701 32.1634 156.717 32.2988 156.686 32.5059C156.59 32.8723 156.423 33.2785 156.184 33.7245C155.945 34.1706 155.634 34.6167 155.252 35.0627C154.869 35.5088 154.4 35.915 153.842 36.2814C153.3 36.6478 152.679 36.9425 151.978 37.1655C151.277 37.3886 150.489 37.5001 149.612 37.5001C147.988 37.5001 146.578 37.1177 145.383 36.3531C144.204 35.5884 143.296 34.5211 142.659 33.151C142.022 31.7651 141.703 30.1481 141.703 28.3002C141.703 26.4363 142.022 24.8353 142.659 23.4972C143.296 22.159 144.204 21.1235 145.383 20.3907C146.562 19.6579 147.964 19.2915 149.589 19.2915Z" fill="white"/>
<path d="M161.745 31.9085C161.745 32.5616 161.897 33.151 162.199 33.6768C162.502 34.1865 162.916 34.5928 163.442 34.8954C163.984 35.1822 164.573 35.3256 165.21 35.3256C165.864 35.3256 166.453 35.1901 166.979 34.9193C167.52 34.6485 168.03 34.2104 168.508 33.6051C168.572 33.5254 168.627 33.4856 168.675 33.4856C168.723 33.4697 168.803 33.4936 168.914 33.5573L170.372 34.2025C170.579 34.298 170.603 34.4414 170.444 34.6326C169.966 35.3335 169.448 35.8991 168.89 36.3292C168.349 36.7434 167.743 37.046 167.074 37.2372C166.421 37.4124 165.68 37.5001 164.852 37.5001C163.641 37.5001 162.558 37.2292 161.602 36.6876C160.646 36.146 159.89 35.3972 159.332 34.4414C158.79 33.4697 158.52 32.3545 158.52 31.096C158.52 29.7101 158.798 28.5153 159.356 27.5117C159.929 26.508 160.694 25.7354 161.65 25.1938C162.606 24.6362 163.657 24.3574 164.804 24.3574C166.015 24.3574 167.066 24.6203 167.958 25.146C168.866 25.6717 169.575 26.4284 170.085 27.4161C170.595 28.3878 170.85 29.5747 170.85 30.9765C170.85 31.1358 170.834 31.2633 170.802 31.3589C170.786 31.4544 170.675 31.5102 170.467 31.5261H162.008C161.913 31.5261 161.841 31.558 161.793 31.6217C161.761 31.6854 161.745 31.781 161.745 31.9085ZM167.409 29.7579C167.568 29.7579 167.672 29.7419 167.719 29.7101C167.783 29.6623 167.815 29.5667 167.815 29.4233C167.815 28.9295 167.703 28.4436 167.48 27.9657C167.257 27.4878 166.931 27.0975 166.501 26.7948C166.071 26.4762 165.545 26.3169 164.924 26.3169C164.286 26.3169 163.729 26.4762 163.251 26.7948C162.773 27.0975 162.407 27.5117 162.152 28.0374C161.913 28.5471 161.793 29.1206 161.793 29.7579H167.409Z" fill="white"/>
<path d="M173.55 37.2611C173.263 37.2611 173.119 37.1177 173.119 36.831V25.0026C173.119 24.7318 173.231 24.5964 173.454 24.5964H175.844C176.051 24.5964 176.154 24.7159 176.154 24.9548V26.1974C176.154 26.293 176.178 26.3567 176.226 26.3886C176.274 26.4045 176.337 26.3726 176.417 26.293C176.879 25.8947 177.325 25.5522 177.755 25.2655C178.185 24.9787 178.631 24.7557 179.093 24.5964C179.555 24.4371 180.057 24.3574 180.599 24.3574C181.778 24.3574 182.702 24.6999 183.371 25.3849C184.056 26.054 184.398 26.9461 184.398 28.0613V36.7593C184.398 37.0938 184.231 37.2611 183.896 37.2611H181.698C181.555 37.2611 181.451 37.2292 181.387 37.1655C181.324 37.1018 181.292 36.9903 181.292 36.831V28.6109C181.292 27.9896 181.125 27.5117 180.79 27.1771C180.455 26.8266 179.954 26.6514 179.285 26.6514C178.902 26.6514 178.544 26.7151 178.209 26.8426C177.891 26.9541 177.572 27.1293 177.253 27.3683C176.935 27.6072 176.592 27.9099 176.226 28.2763V36.7832C176.226 37.1018 176.043 37.2611 175.676 37.2611H173.55Z" fill="white"/>
<path d="M191.523 26.7709C191.364 26.7709 191.284 26.8585 191.284 27.0337V33.4139C191.284 34.0352 191.412 34.4653 191.667 34.7043C191.922 34.9432 192.32 35.0627 192.861 35.0627H194.271C194.367 35.0627 194.447 35.0946 194.51 35.1583C194.574 35.222 194.606 35.3017 194.606 35.3972L194.582 36.6398C194.582 36.8947 194.431 37.054 194.128 37.1177C193.889 37.1496 193.61 37.1815 193.292 37.2133C192.973 37.2292 192.654 37.2452 192.336 37.2611C192.033 37.2611 191.754 37.2611 191.499 37.2611C190.432 37.2611 189.612 37.0142 189.038 36.5203C188.465 36.0106 188.178 35.2459 188.178 34.2264V27.0815C188.178 26.8744 188.082 26.7709 187.891 26.7709H186.29C186.035 26.7709 185.908 26.6514 185.908 26.4125V24.907C185.908 24.6999 186.027 24.5964 186.266 24.5964H188.035C188.178 24.5964 188.25 24.5167 188.25 24.3574L188.56 20.6775C188.576 20.4226 188.688 20.2951 188.895 20.2951H191.021C191.244 20.2951 191.356 20.4306 191.356 20.7014V24.3574C191.356 24.5008 191.428 24.5725 191.571 24.5725H194.271C194.51 24.5725 194.63 24.684 194.63 24.907V26.4125C194.63 26.6514 194.494 26.7709 194.223 26.7709H191.523Z" fill="white"/>
<path d="M199.059 31.9085C199.059 32.5616 199.211 33.151 199.513 33.6768C199.816 34.1865 200.23 34.5928 200.756 34.8954C201.297 35.1822 201.887 35.3256 202.524 35.3256C203.177 35.3256 203.767 35.1901 204.292 34.9193C204.834 34.6485 205.344 34.2104 205.822 33.6051C205.885 33.5254 205.941 33.4856 205.989 33.4856C206.037 33.4697 206.116 33.4936 206.228 33.5573L207.686 34.2025C207.893 34.298 207.917 34.4414 207.757 34.6326C207.279 35.3335 206.762 35.8991 206.204 36.3292C205.662 36.7434 205.057 37.046 204.388 37.2372C203.735 37.4124 202.994 37.5001 202.166 37.5001C200.955 37.5001 199.872 37.2292 198.916 36.6876C197.96 36.146 197.203 35.3972 196.646 34.4414C196.104 33.4697 195.833 32.3545 195.833 31.096C195.833 29.7101 196.112 28.5153 196.67 27.5117C197.243 26.508 198.008 25.7354 198.964 25.1938C199.919 24.6362 200.971 24.3574 202.118 24.3574C203.329 24.3574 204.38 24.6203 205.272 25.146C206.18 25.6717 206.889 26.4284 207.399 27.4161C207.909 28.3878 208.163 29.5747 208.163 30.9765C208.163 31.1358 208.148 31.2633 208.116 31.3589C208.1 31.4544 207.988 31.5102 207.781 31.5261H199.322C199.226 31.5261 199.155 31.558 199.107 31.6217C199.075 31.6854 199.059 31.781 199.059 31.9085ZM204.722 29.7579C204.882 29.7579 204.985 29.7419 205.033 29.7101C205.097 29.6623 205.129 29.5667 205.129 29.4233C205.129 28.9295 205.017 28.4436 204.794 27.9657C204.571 27.4878 204.245 27.0975 203.814 26.7948C203.384 26.4762 202.859 26.3169 202.237 26.3169C201.6 26.3169 201.043 26.4762 200.565 26.7948C200.087 27.0975 199.72 27.5117 199.465 28.0374C199.226 28.5471 199.107 29.1206 199.107 29.7579H204.722Z" fill="white"/>
<path d="M210.863 37.2611C210.704 37.2611 210.592 37.2292 210.529 37.1655C210.465 37.0859 210.433 36.9744 210.433 36.831V25.0026C210.433 24.7318 210.545 24.5964 210.768 24.5964H213.086C213.309 24.5964 213.42 24.7159 213.42 24.9548V26.4125C213.42 26.508 213.452 26.5718 213.516 26.6036C213.579 26.6195 213.651 26.5797 213.731 26.4841C214.081 26.0222 214.456 25.6398 214.854 25.3371C215.268 25.0185 215.682 24.7796 216.096 24.6203C216.527 24.445 216.941 24.3574 217.339 24.3574C217.913 24.3574 218.199 24.4849 218.199 24.7398V27.0337C218.199 27.2568 218.096 27.3524 217.889 27.3205C217.65 27.2568 217.395 27.2169 217.124 27.201C216.869 27.1691 216.63 27.1532 216.407 27.1532C216.104 27.1532 215.778 27.2169 215.427 27.3444C215.093 27.4718 214.782 27.655 214.495 27.894C214.209 28.117 213.978 28.3639 213.802 28.6348C213.627 28.9056 213.54 29.1844 213.54 29.4711V36.7832C213.54 37.1018 213.356 37.2611 212.99 37.2611H210.863Z" fill="white"/>
<path d="M230.891 37.5001C229.648 37.5001 228.557 37.2213 227.617 36.6637C226.677 36.1061 225.936 35.3415 225.395 34.3697C224.869 33.382 224.606 32.2589 224.606 31.0004C224.606 29.6782 224.877 28.5232 225.419 27.5356C225.976 26.5319 226.725 25.7513 227.665 25.1938C228.621 24.6362 229.704 24.3574 230.915 24.3574C232.173 24.3574 233.272 24.6442 234.212 25.2177C235.152 25.7752 235.885 26.5558 236.411 27.5594C236.936 28.5471 237.199 29.6862 237.199 30.9765C237.199 32.251 236.928 33.382 236.387 34.3697C235.861 35.3415 235.128 36.1061 234.188 36.6637C233.248 37.2213 232.149 37.5001 230.891 37.5001ZM230.915 35.3733C231.6 35.3733 232.173 35.2061 232.635 34.8715C233.097 34.5211 233.448 34.0193 233.687 33.3661C233.925 32.697 234.045 31.8846 234.045 30.9287C234.045 29.957 233.918 29.1366 233.663 28.4675C233.424 27.7984 233.073 27.2886 232.611 26.9382C232.149 26.5877 231.584 26.4125 230.915 26.4125C230.261 26.4125 229.696 26.5877 229.218 26.9382C228.74 27.2886 228.374 27.7984 228.119 28.4675C227.88 29.1366 227.76 29.957 227.76 30.9287C227.76 31.8846 227.88 32.697 228.119 33.3661C228.374 34.0193 228.74 34.5211 229.218 34.8715C229.696 35.2061 230.261 35.3733 230.915 35.3733Z" fill="white"/>
<path d="M246.208 24.5964C246.336 24.5964 246.431 24.6362 246.495 24.7159C246.559 24.7796 246.59 24.8592 246.59 24.9548V26.4602C246.59 26.6673 246.471 26.7709 246.232 26.7709H244.01C243.85 26.7709 243.771 26.8505 243.771 27.0098V36.8549C243.771 37.1257 243.651 37.2611 243.412 37.2611H240.999C240.776 37.2611 240.664 37.1337 240.664 36.8788V26.9859C240.664 26.8426 240.609 26.7709 240.497 26.7709H238.561C238.322 26.7709 238.203 26.6673 238.203 26.4602V24.9548C238.203 24.8592 238.227 24.7796 238.275 24.7159C238.338 24.6362 238.442 24.5964 238.585 24.5964H240.401C240.577 24.5964 240.664 24.4928 240.664 24.2857V22.7325C240.664 21.713 240.943 20.9244 241.501 20.3668C242.074 19.8093 242.895 19.5305 243.962 19.5305H246.232C246.535 19.5305 246.686 19.6739 246.686 19.9606L246.71 21.2988C246.71 21.3943 246.678 21.474 246.614 21.5377C246.567 21.6014 246.487 21.6333 246.375 21.6333H244.965C244.551 21.6333 244.233 21.7767 244.01 22.0634C243.803 22.3502 243.699 22.7166 243.699 23.1626V24.3574C243.699 24.5167 243.787 24.5964 243.962 24.5964H246.208Z" fill="white"/>
<path d="M108.281 43.4262C108.472 43.4262 108.568 43.5377 108.568 43.7607V60.7984C108.568 60.9099 108.528 60.9975 108.448 61.0612C108.385 61.125 108.289 61.1568 108.162 61.1568H106.178C106.067 61.1568 105.971 61.1489 105.892 61.1329C105.812 61.1011 105.716 61.0214 105.605 60.894L97.4326 49.2807C97.3688 49.1851 97.3051 49.1452 97.2414 49.1612C97.1936 49.1771 97.1697 49.2249 97.1697 49.3046V60.7745C97.1856 61.0294 97.0502 61.1568 96.7635 61.1568H94.6607C94.3739 61.1568 94.2305 61.0294 94.2305 60.7745V43.8324C94.2305 43.5616 94.358 43.4262 94.6129 43.4262H97.0024C97.1617 43.4262 97.2812 43.4501 97.3609 43.4979C97.4405 43.5298 97.5282 43.6094 97.6237 43.7368L105.318 54.8245C105.414 54.9519 105.493 55.0077 105.557 54.9917C105.637 54.9599 105.677 54.8802 105.677 54.7528V43.8085C105.677 43.5536 105.804 43.4262 106.059 43.4262H108.281Z" fill="white"/>
<path d="M114.537 55.8042C114.537 56.4573 114.689 57.0468 114.991 57.5725C115.294 58.0822 115.708 58.4885 116.234 58.7912C116.776 59.0779 117.365 59.2213 118.002 59.2213C118.655 59.2213 119.245 59.0859 119.771 58.815C120.312 58.5442 120.822 58.1061 121.3 57.5008C121.364 57.4211 121.419 57.3813 121.467 57.3813C121.515 57.3654 121.595 57.3893 121.706 57.453L123.164 58.0982C123.371 58.1938 123.395 58.3371 123.235 58.5283C122.758 59.2292 122.24 59.7948 121.682 60.2249C121.141 60.6391 120.535 60.9418 119.866 61.1329C119.213 61.3082 118.472 61.3958 117.644 61.3958C116.433 61.3958 115.35 61.125 114.394 60.5833C113.438 60.0417 112.682 59.293 112.124 58.3371C111.582 57.3654 111.312 56.2502 111.312 54.9917C111.312 53.6058 111.59 52.411 112.148 51.4074C112.721 50.4038 113.486 49.6311 114.442 49.0895C115.398 48.5319 116.449 48.2531 117.596 48.2531C118.807 48.2531 119.858 48.516 120.75 49.0417C121.658 49.5674 122.367 50.3241 122.877 51.3118C123.387 52.2836 123.642 53.4704 123.642 54.8723C123.642 55.0316 123.626 55.159 123.594 55.2546C123.578 55.3502 123.466 55.4059 123.259 55.4219H114.8C114.705 55.4219 114.633 55.4537 114.585 55.5174C114.553 55.5812 114.537 55.6767 114.537 55.8042ZM120.201 53.6536C120.36 53.6536 120.464 53.6376 120.511 53.6058C120.575 53.558 120.607 53.4624 120.607 53.319C120.607 52.8252 120.495 52.3393 120.272 51.8614C120.049 51.3835 119.723 50.9932 119.293 50.6905C118.863 50.3719 118.337 50.2126 117.716 50.2126C117.078 50.2126 116.521 50.3719 116.043 50.6905C115.565 50.9932 115.199 51.4074 114.944 51.9331C114.705 52.4429 114.585 53.0164 114.585 53.6536H120.201Z" fill="white"/>
<path d="M142.48 48.4921C142.623 48.4921 142.719 48.5399 142.767 48.6355C142.831 48.7311 142.839 48.8426 142.791 48.97L138.967 60.7984C138.936 60.9258 138.88 61.0214 138.8 61.0851C138.736 61.1329 138.633 61.1568 138.49 61.1568H136.793C136.49 61.1568 136.299 61.0214 136.219 60.7506L133.902 53.3668C133.838 53.2235 133.774 53.1518 133.71 53.1518C133.663 53.1518 133.615 53.2235 133.567 53.3668L131.273 60.7984C131.241 60.9258 131.185 61.0214 131.106 61.0851C131.042 61.1329 130.938 61.1568 130.795 61.1568H129.027C128.74 61.1568 128.557 61.0214 128.477 60.7506L124.654 48.9939C124.606 48.8505 124.614 48.7311 124.678 48.6355C124.742 48.5399 124.845 48.4921 124.988 48.4921H127.306C127.418 48.4921 127.521 48.524 127.617 48.5877C127.713 48.6514 127.768 48.739 127.784 48.8505L130.174 56.4733C130.206 56.6326 130.253 56.7122 130.317 56.7122C130.397 56.6963 130.461 56.6087 130.508 56.4494L132.826 48.8266C132.858 48.7311 132.914 48.6514 132.994 48.5877C133.073 48.524 133.169 48.4921 133.28 48.4921H135.001C135.096 48.4921 135.184 48.524 135.264 48.5877C135.359 48.6514 135.423 48.739 135.455 48.8505L137.82 56.4733C137.868 56.6326 137.924 56.7122 137.988 56.7122C138.051 56.6963 138.107 56.6087 138.155 56.4494L140.473 48.8266C140.521 48.7311 140.584 48.6514 140.664 48.5877C140.744 48.524 140.839 48.4921 140.951 48.4921H142.48Z" fill="white"/>
<path d="M164.333 43.4262C164.477 43.4262 164.572 43.466 164.62 43.5457C164.668 43.6253 164.652 43.7289 164.572 43.8563L158.933 53.1757C158.853 53.2872 158.806 53.4146 158.79 53.558C158.774 53.6854 158.766 53.9164 158.766 54.251V60.6311C158.766 60.9816 158.567 61.1568 158.168 61.1568H155.707C155.516 61.1568 155.389 61.125 155.325 61.0612C155.261 60.9816 155.229 60.8621 155.229 60.7028V54.2032C155.229 53.9961 155.205 53.8447 155.158 53.7492C155.126 53.6536 155.07 53.5341 154.99 53.3907L149.303 43.928C149.207 43.7846 149.184 43.6652 149.231 43.5696C149.295 43.474 149.423 43.4262 149.614 43.4262H152.553C152.744 43.4262 152.872 43.4581 152.935 43.5218C153.015 43.5696 153.103 43.6652 153.198 43.8085L157.045 50.5232C157.125 50.6825 157.197 50.7702 157.26 50.7861C157.34 50.7861 157.428 50.7064 157.523 50.5471L161.323 43.8085C161.402 43.6492 161.482 43.5457 161.562 43.4979C161.641 43.4501 161.769 43.4262 161.944 43.4262H164.333Z" fill="white"/>
<path d="M169.961 61.3958C168.719 61.3958 167.627 61.117 166.688 60.5594C165.748 60.0019 165.007 59.2372 164.465 58.2654C163.94 57.2778 163.677 56.1547 163.677 54.8962C163.677 53.5739 163.948 52.419 164.489 51.4313C165.047 50.4277 165.795 49.6471 166.735 49.0895C167.691 48.5319 168.774 48.2531 169.985 48.2531C171.244 48.2531 172.343 48.5399 173.283 49.1134C174.223 49.671 174.956 50.4515 175.481 51.4552C176.007 52.4429 176.27 53.5819 176.27 54.8723C176.27 56.1467 175.999 57.2778 175.457 58.2654C174.932 59.2372 174.199 60.0019 173.259 60.5594C172.319 61.117 171.22 61.3958 169.961 61.3958ZM169.985 59.2691C170.67 59.2691 171.244 59.1018 171.706 58.7673C172.168 58.4168 172.518 57.915 172.757 57.2618C172.996 56.5927 173.116 55.7803 173.116 54.8245C173.116 53.8527 172.988 53.0323 172.733 52.3632C172.494 51.6941 172.144 51.1844 171.682 50.8339C171.22 50.4834 170.654 50.3082 169.985 50.3082C169.332 50.3082 168.767 50.4834 168.289 50.8339C167.811 51.1844 167.444 51.6941 167.189 52.3632C166.95 53.0323 166.831 53.8527 166.831 54.8245C166.831 55.7803 166.95 56.5927 167.189 57.2618C167.444 57.915 167.811 58.4168 168.289 58.7673C168.767 59.1018 169.332 59.2691 169.985 59.2691Z" fill="white"/>
<path d="M179.057 61.1568C178.897 61.1568 178.786 61.125 178.722 61.0612C178.659 60.9816 178.627 60.8701 178.627 60.7267V48.8983C178.627 48.6275 178.738 48.4921 178.961 48.4921H181.279C181.502 48.4921 181.614 48.6116 181.614 48.8505V50.3082C181.614 50.4038 181.646 50.4675 181.709 50.4993C181.773 50.5153 181.845 50.4754 181.924 50.3799C182.275 49.9179 182.649 49.5355 183.047 49.2329C183.462 48.9143 183.876 48.6753 184.29 48.516C184.72 48.3408 185.134 48.2531 185.533 48.2531C186.106 48.2531 186.393 48.3806 186.393 48.6355V50.9295C186.393 51.1525 186.289 51.2481 186.082 51.2162C185.843 51.1525 185.588 51.1127 185.317 51.0967C185.063 51.0649 184.824 51.0489 184.601 51.0489C184.298 51.0489 183.971 51.1127 183.621 51.2401C183.286 51.3675 182.976 51.5508 182.689 51.7897C182.402 52.0127 182.171 52.2597 181.996 52.5305C181.821 52.8013 181.733 53.0801 181.733 53.3668V60.6789C181.733 60.9975 181.55 61.1568 181.184 61.1568H179.057Z" fill="white"/>
<path d="M200.471 60.655C200.55 60.7665 200.566 60.878 200.518 60.9896C200.471 61.1011 200.359 61.1568 200.184 61.1568H197.555C197.412 61.1568 197.292 61.125 197.197 61.0612C197.117 60.9816 197.045 60.8701 196.982 60.7267L194.114 55.3741C194.066 55.2626 194.019 55.1988 193.971 55.1829C193.923 55.167 193.851 55.2068 193.756 55.3024L191.772 57.2618C191.709 57.3256 191.653 57.3972 191.605 57.4769C191.573 57.5565 191.557 57.6681 191.557 57.8114V60.6311C191.557 60.8223 191.518 60.9577 191.438 61.0374C191.358 61.117 191.215 61.1568 191.008 61.1568H188.929C188.738 61.1568 188.61 61.125 188.547 61.0612C188.483 60.9816 188.451 60.8701 188.451 60.7267V43.8324C188.451 43.5616 188.57 43.4262 188.809 43.4262H191.223C191.446 43.4262 191.557 43.5536 191.557 43.8085V54.0598C191.557 54.1554 191.581 54.2191 191.629 54.251C191.677 54.2828 191.749 54.243 191.844 54.1315L196.814 48.8266C197.038 48.6036 197.237 48.4921 197.412 48.4921H199.586C199.793 48.4921 199.913 48.5479 199.945 48.6594C199.993 48.7709 199.945 48.8983 199.801 49.0417L196.289 52.5783C196.225 52.6579 196.185 52.7376 196.169 52.8172C196.153 52.8969 196.185 53.0164 196.265 53.1757L200.471 60.655Z" fill="white"/>
<path d="M215.138 43.1872C216.015 43.1872 216.843 43.3227 217.624 43.5935C218.404 43.8484 219.105 44.2148 219.726 44.6927C220.348 45.1547 220.857 45.6963 221.256 46.3176C221.654 46.9389 221.917 47.608 222.044 48.3248C222.092 48.5479 222.092 48.6912 222.044 48.755C222.012 48.8187 221.933 48.8585 221.805 48.8744L219.081 49.0656C218.954 49.0656 218.874 49.0417 218.842 48.9939C218.81 48.9302 218.779 48.8426 218.747 48.7311C218.555 47.8389 218.165 47.1141 217.576 46.5565C216.986 45.983 216.206 45.6963 215.234 45.6963C213.88 45.6963 212.828 46.222 212.08 47.2734C211.331 48.3248 210.957 49.9816 210.957 52.2437C210.957 54.474 211.315 56.1148 212.032 57.1662C212.765 58.2177 213.856 58.7434 215.306 58.7434C216.293 58.7434 217.138 58.5044 217.839 58.0265C218.54 57.5326 219.113 56.7122 219.559 55.5652C219.607 55.4378 219.75 55.398 219.989 55.4458L222.02 55.8759C222.084 55.8918 222.14 55.9316 222.188 55.9954C222.251 56.0591 222.267 56.1945 222.235 56.4016C222.14 56.768 221.973 57.1742 221.734 57.6203C221.495 58.0663 221.184 58.5124 220.802 58.9584C220.419 59.4045 219.949 59.8107 219.392 60.1771C218.85 60.5435 218.229 60.8382 217.528 61.0612C216.827 61.2843 216.038 61.3958 215.162 61.3958C213.537 61.3958 212.128 61.0135 210.933 60.2488C209.754 59.4841 208.846 58.4168 208.209 57.0468C207.571 55.6608 207.253 54.0439 207.253 52.1959C207.253 50.3321 207.571 48.7311 208.209 47.3929C208.846 46.0547 209.754 45.0193 210.933 44.2865C212.112 43.5536 213.514 43.1872 215.138 43.1872Z" fill="white"/>
<path d="M227.821 60.6311C227.821 60.8223 227.773 60.9577 227.678 61.0374C227.598 61.117 227.455 61.1568 227.248 61.1568H225.169C224.993 61.1568 224.874 61.125 224.81 61.0612C224.746 60.9816 224.715 60.8701 224.715 60.7267V48.8983C224.715 48.6275 224.834 48.4921 225.073 48.4921H227.487C227.71 48.4921 227.821 48.6195 227.821 48.8744V60.6311ZM227.869 46.1503C227.869 46.5167 227.678 46.6999 227.295 46.6999H225.121C224.946 46.6999 224.826 46.6601 224.762 46.5804C224.699 46.5008 224.667 46.3813 224.667 46.222V43.8802C224.667 43.5775 224.794 43.4262 225.049 43.4262H227.51C227.749 43.4262 227.869 43.5616 227.869 43.8324V46.1503Z" fill="white"/>
<path d="M235.464 50.6666C235.305 50.6666 235.225 50.7542 235.225 50.9295V57.3096C235.225 57.9309 235.353 58.361 235.608 58.6C235.863 58.8389 236.261 58.9584 236.802 58.9584H238.212C238.308 58.9584 238.388 58.9903 238.451 59.054C238.515 59.1177 238.547 59.1974 238.547 59.293L238.523 60.5355C238.523 60.7904 238.372 60.9497 238.069 61.0135C237.83 61.0453 237.551 61.0772 237.233 61.109C236.914 61.125 236.595 61.1409 236.277 61.1568C235.974 61.1568 235.695 61.1568 235.44 61.1568C234.373 61.1568 233.553 60.9099 232.979 60.4161C232.406 59.9063 232.119 59.1416 232.119 58.1221V50.9773C232.119 50.7702 232.023 50.6666 231.832 50.6666H230.231C229.976 50.6666 229.849 50.5471 229.849 50.3082V48.8027C229.849 48.5956 229.968 48.4921 230.207 48.4921H231.976C232.119 48.4921 232.191 48.4124 232.191 48.2531L232.501 44.5732C232.517 44.3183 232.629 44.1909 232.836 44.1909H234.963C235.186 44.1909 235.297 44.3263 235.297 44.5971V48.2531C235.297 48.3965 235.369 48.4682 235.512 48.4682H238.212C238.451 48.4682 238.571 48.5797 238.571 48.8027V50.3082C238.571 50.5471 238.435 50.6666 238.165 50.6666H235.464Z" fill="white"/>
<path d="M241.797 65.0996C241.319 65.0996 240.96 65.0757 240.721 65.0279C240.482 64.9961 240.363 64.8846 240.363 64.6934V63.1641C240.363 63.0685 240.411 62.9809 240.506 62.9012C240.602 62.8375 240.785 62.8056 241.056 62.8056H242.633C242.951 62.8056 243.238 62.718 243.493 62.5428C243.764 62.3675 243.979 62.1525 244.138 61.8976C244.314 61.6427 244.425 61.3799 244.473 61.109C244.537 60.8223 244.521 60.5674 244.425 60.3444L239.837 49.0178C239.789 48.8744 239.797 48.755 239.861 48.6594C239.925 48.5479 240.036 48.4921 240.196 48.4921H242.681C242.792 48.4921 242.888 48.524 242.967 48.5877C243.063 48.6514 243.127 48.739 243.159 48.8505L246.122 56.7122C246.169 56.8556 246.233 56.9273 246.313 56.9273C246.392 56.9273 246.464 56.8397 246.528 56.6644L249.467 48.8266C249.515 48.7311 249.571 48.6514 249.634 48.5877C249.714 48.524 249.81 48.4921 249.921 48.4921H251.665C251.793 48.4921 251.888 48.5479 251.952 48.6594C252.016 48.755 252.016 48.8585 251.952 48.97L246.934 61.5392C246.631 62.2879 246.313 62.8933 245.978 63.3552C245.66 63.8172 245.301 64.1757 244.903 64.4305C244.505 64.6854 244.051 64.8607 243.541 64.9562C243.047 65.0518 242.466 65.0996 241.797 65.0996Z" fill="white"/>
</svg>
